D:\PredSim\limbproperties\Ratio80\Ratio80_IK_walking_1.mot
version=1
nRows=4
nColumns=124
inDegrees=yes
endheader
                time	         pelvis_tilt	         pelvis_list	     pelvis_rotation	           pelvis_tx	           pelvis_ty	           pelvis_tz	       hip_flexion_r	     hip_adduction_r	      hip_rotation_r	        knee_angle_r	       ankle_angle_r	    subtalar_angle_r	         mtp_angle_r	       hip_flexion_l	     hip_adduction_l	      hip_rotation_l	        knee_angle_l	       ankle_angle_l	    subtalar_angle_l	         mtp_angle_l	    lumbar_extension	      lumbar_bending	     lumbar_rotation	          arm_flex_r	           arm_add_r	           arm_rot_r	        elbow_flex_r	          arm_flex_l	           arm_add_l	           arm_rot_l	        elbow_flex_l	glut_med1_r/activation	glut_med2_r/activation	glut_med3_r/activation	glut_min1_r/activation	glut_min2_r/activation	glut_min3_r/activation	semimem_r/activation	semiten_r/activation	bifemlh_r/activation	bifemsh_r/activation	    sar_r/activation	add_long_r/activation	add_brev_r/activation	add_mag1_r/activation	add_mag2_r/activation	add_mag3_r/activation	    tfl_r/activation	   pect_r/activation	   grac_r/activation	glut_max1_r/activation	glut_max2_r/activation	glut_max3_r/activation	iliacus_r/activation	  psoas_r/activation	quad_fem_r/activation	    gem_r/activation	   peri_r/activation	rect_fem_r/activation	vas_med_r/activation	vas_int_r/activation	vas_lat_r/activation	med_gas_r/activation	lat_gas_r/activation	 soleus_r/activation	tib_post_r/activation	flex_dig_r/activation	flex_hal_r/activation	tib_ant_r/activation	per_brev_r/activation	per_long_r/activation	per_tert_r/activation	ext_dig_r/activation	ext_hal_r/activation	glut_med1_l/activation	glut_med2_l/activation	glut_med3_l/activation	glut_min1_l/activation	glut_min2_l/activation	glut_min3_l/activation	semimem_l/activation	semiten_l/activation	bifemlh_l/activation	bifemsh_l/activation	    sar_l/activation	add_long_l/activation	add_brev_l/activation	add_mag1_l/activation	add_mag2_l/activation	add_mag3_l/activation	    tfl_l/activation	   pect_l/activation	   grac_l/activation	glut_max1_l/activation	glut_max2_l/activation	glut_max3_l/activation	iliacus_l/activation	  psoas_l/activation	quad_fem_l/activation	    gem_l/activation	   peri_l/activation	rect_fem_l/activation	vas_med_l/activation	vas_int_l/activation	vas_lat_l/activation	med_gas_l/activation	lat_gas_l/activation	 soleus_l/activation	tib_post_l/activation	flex_dig_l/activation	flex_hal_l/activation	tib_ant_l/activation	per_brev_l/activation	per_long_l/activation	per_tert_l/activation	ext_dig_l/activation	ext_hal_l/activation	 ercspn_r/activation	 ercspn_l/activation	 intobl_r/activation	 intobl_l/activation	 extobl_r/activation	 extobl_l/activation	
          1.28977756	         -6.19498765	         -0.96429600	          3.66459615	          1.27421852	          0.89765068	         -0.00445354	         30.98545938	          2.62114611	          0.94254206	         -7.97343088	          1.71498470	         -2.48534830	          0.17001083	        -10.85324214	          1.99914467	         10.46792242	         -8.56499366	         12.28701804	         11.34667650	         10.26687129	          1.90507395	         -0.48278492	         -4.11818170	         -5.43174492	        -13.47773423	         13.72064835	         19.40719060	          1.97538285	        -13.46161007	         17.45327642	         29.60892744	          0.05000094	          0.05000056	          0.05000176	          0.05000041	          0.05000048	          0.05000113	          0.11353136	          0.06075126	          0.08926813	          0.05000104	          0.05000076	          0.11866955	          0.14905042	          0.13829237	          0.11782498	          0.08465257	          0.05000136	          0.05000457	          0.08404482	          0.05001489	          0.06030443	          0.07876216	          0.05156323	          0.05548015	          0.13880790	          0.05000035	          0.05000033	          0.05000020	          0.05000096	          0.05000095	          0.05000062	          0.05456666	          0.05000050	          0.05087592	          0.05060442	          0.05000241	          0.05000388	          0.35924013	          0.15026205	          0.16779184	          0.07443213	          0.41976078	          0.10670311	          0.46396392	          0.20702452	          0.11065402	          0.36865975	          0.29343451	          0.19538253	          0.05000064	          0.05000021	          0.05000015	          0.06017701	          0.10191771	          0.05000010	          0.05000013	          0.05000027	          0.05000074	          0.05000041	          0.34165662	          0.05000051	          0.05000042	          0.05001916	          0.05000266	          0.05000055	          0.25516439	          0.49392942	          0.05000017	          0.05000174	          0.08366191	          0.20787323	          0.05000040	          0.05000038	          0.05000035	          0.41026886	          0.46373250	          0.39277349	          0.35812130	          0.28924149	          0.35205251	          0.05000003	          0.05000022	          0.12081754	          0.05000012	          0.05000004	          0.05000016	          0.05630154	          0.05000001	          0.09026075	          0.05000003	          0.10147826	          0.05000004	
          1.30267533	         -6.20635318	         -1.00779811	          3.90902570	          1.29023436	          0.89693118	         -0.00399978	         30.39585652	          2.92942928	          1.10604815	         -7.51939257	          1.17004451	         -2.62787788	          0.19206552	        -11.00252708	          1.82569849	         10.22490199	        -10.08801219	         11.54489871	         12.19835528	         11.24789835	          2.10935249	         -0.34864199	         -4.26334645	         -6.24204404	        -13.49408288	         13.60004978	         18.91546425	          1.69700247	        -13.47702077	         17.64682111	         30.26268419	          0.05001184	          0.05000439	          0.05000018	          0.06074813	          0.06074796	          0.05000176	          0.10773195	          0.05000280	          0.08692914	          0.05000017	          0.05000044	          0.10590879	          0.20706685	          0.14509983	          0.13011274	          0.09868088	          0.05000017	          0.06073816	          0.06917718	          0.05000043	          0.08514834	          0.12202683	          0.05000042	          0.05000015	          0.16780828	          0.16487410	          0.10447336	          0.06074864	          0.07382210	          0.07920911	          0.07380725	          0.05000013	          0.05000012	          0.05000002	          0.05000006	          0.05000043	          0.05000030	          0.41156256	          0.21193646	          0.17110437	          0.14850884	          0.46651798	          0.15875439	          0.43131299	          0.17039581	          0.09107610	          0.30343320	          0.24151742	          0.16081368	          0.05000042	          0.05000016	          0.05000013	          0.05000017	          0.08388605	          0.05000013	          0.05000015	          0.05000037	          0.05000095	          0.05000034	          0.28120926	          0.05000065	          0.05000064	          0.05088281	          0.05002550	          0.05000133	          0.23306659	          0.49116653	          0.06072570	          0.05001679	          0.06885973	          0.18018446	          0.06075501	          0.07118771	          0.05002996	          0.37700264	          0.42964365	          0.36573689	          0.33455822	          0.27189903	          0.34356745	          0.05000002	          0.05000026	          0.14479242	          0.05000009	          0.05000003	          0.05000012	          0.05163516	          0.05000002	          0.07429097	          0.05000006	          0.08352377	          0.05000003	
          1.31557311	         -6.20987665	         -1.06348227	          4.13708766	          1.30664709	          0.89635078	         -0.00352468	         29.77492616	          3.21746076	          1.30919863	         -7.71857496	          0.29750569	         -2.74646877	          0.22037299	        -11.05537584	          1.64439791	          9.98036585	        -11.80000955	         10.56163768	         13.01335664	         12.40765053	          2.33872466	         -0.19784858	         -4.39045734	         -7.08849280	        -13.51389090	         13.54527672	         18.45006867	          1.35348971	        -13.49507958	         17.83728320	         30.89252300	          0.05000002	          0.05000007	          0.09639081	          0.05000006	          0.05000007	          0.05000012	          0.08968413	          0.05000336	          0.07154892	          0.05000023	          0.05000039	          0.08717053	          0.17043076	          0.20440242	          0.16185229	          0.11076378	          0.05000032	          0.05000307	          0.08966333	          0.08221510	          0.10536694	          0.12228315	          0.05000014	          0.05000073	          0.30447592	          0.13570307	          0.08598897	          0.05000056	          0.06076088	          0.06519477	          0.06074867	          0.06074808	          0.06074811	          0.05651642	          0.06074787	          0.05000295	          0.06074786	          0.41225560	          0.24442609	          0.18308516	          0.20736438	          0.47719502	          0.13066637	          0.35500107	          0.14024777	          0.07496206	          0.24974726	          0.19878594	          0.13236105	          0.05000210	          0.05000033	          0.05000024	          0.05000027	          0.06904443	          0.05689791	          0.05001584	          0.05000390	          0.05000471	          0.05859510	          0.23145573	          0.05001284	          0.05000126	          0.05000082	          0.05000055	          0.05000085	          0.19183040	          0.47501316	          0.05000014	          0.05000103	          0.06074831	          0.22267516	          0.05000664	          0.06511575	          0.11841661	          0.33123407	          0.38038786	          0.33052647	          0.30484800	          0.22379408	          0.28776246	          0.05000001	          0.06803233	          0.16151538	          0.05000009	          0.05000002	          0.05000011	          0.05000000	          0.05000009	          0.06114671	          0.06074815	          0.06874595	          0.05222012	
          1.32847088	         -6.20668510	         -1.14665558	          4.34538970	          1.32331660	          0.89596189	         -0.00304918	         29.14597217	          3.45134124	          1.54747613	         -8.37955930	         -0.91565310	         -2.83391298	          0.21269030	        -11.00449008	          1.44248063	          9.73013401	        -13.67755103	          9.30100468	         13.77097268	         13.71985663	          2.58231162	         -0.01438347	         -4.49424154	         -7.93970011	        -13.53801753	         13.55971670	         17.98600011	          0.97036110	        -13.50523661	         18.02255005	         31.48431924	          0.25422313	          0.25653090	          0.30357857	          0.21035404	          0.20350147	          0.23004121	          0.07381648	          0.05607865	          0.06454148	          0.06074919	          0.05463632	          0.07174755	          0.14027657	          0.16823766	          0.13321596	          0.12947462	          0.05000041	          0.05002222	          0.07379956	          0.17319829	          0.15620479	          0.13220407	          0.05000053	          0.05000019	          0.25060517	          0.11169330	          0.15650878	          0.05000005	          0.05001055	          0.05365996	          0.05000052	          0.05000002	          0.05000006	          0.05000000	          0.05000006	          0.05000029	          0.05000029	          0.56090441	          0.23327662	          0.17966582	          0.39164627	          0.58423067	          0.26259121	          0.38642529	          0.11543383	          0.06169909	          0.26810531	          0.16361500	          0.10894253	          0.05000058	          0.05000013	          0.05000011	          0.05000014	          0.06075871	          0.05000009	          0.05000012	          0.05000022	          0.05000061	          0.05000028	          0.25587226	          0.05000055	          0.05000033	          0.05000368	          0.05000134	          0.05000039	          0.18240805	          0.46598585	          0.05000016	          0.05000054	          0.05000023	          0.18327738	          0.05723799	          0.05359648	          0.09746543	          0.27262899	          0.31308615	          0.27204657	          0.25904932	          0.18419852	          0.23684900	          0.05000002	          0.12114537	          0.16979615	          0.05000009	          0.05000003	          0.05000012	          0.05554500	          0.05000018	          0.07755869	          0.05000001	          0.05658277	          0.05000004	
